<?xml version="1.0" standalone="no"?>
<!DOCTYPE svg PUBLIC "-//W3C//DTD SVG 20010904//EN"
 "http://www.w3.org/TR/2001/REC-SVG-20010904/DTD/svg10.dtd">
<svg version="1.0" xmlns="http://www.w3.org/2000/svg"
 width="1500.000000pt" height="1500.000000pt" viewBox="0 0 1500.000000 1500.000000"
 preserveAspectRatio="xMidYMid meet">
<metadata>
Created by potrace 1.14, written by Peter Selinger 2001-2017
</metadata>
<g transform="translate(0.000000,1500.000000) scale(0.100000,-0.100000)"
fill="#000000" stroke="none">
<path d="M7248 14055 c-1 -1 -59 -6 -128 -9 -69 -4 -138 -8 -155 -11 -16 -2
-59 -6 -95 -9 -139 -12 -204 -20 -310 -36 -41 -7 -82 -13 -90 -14 -36 -5 -117
-18 -135 -21 -116 -22 -279 -57 -400 -86 -66 -16 -131 -32 -145 -35 -14 -3
-45 -11 -70 -19 -25 -7 -92 -28 -150 -45 -215 -64 -525 -175 -658 -236 -29
-13 -55 -24 -57 -24 -4 0 -58 -24 -185 -82 -426 -196 -872 -466 -1260 -761
-80 -61 -147 -113 -150 -116 -3 -3 -36 -32 -75 -63 -38 -31 -79 -65 -90 -75
-11 -10 -61 -54 -110 -98 -165 -146 -488 -476 -613 -625 -11 -14 -31 -36 -43
-50 -43 -50 -176 -216 -220 -275 -24 -33 -46 -62 -50 -65 -13 -12 -199 -279
-239 -345 -17 -27 -44 -70 -60 -95 -45 -70 -188 -314 -227 -388 -78 -147 -233
-464 -233 -478 0 -2 -11 -28 -25 -58 -119 -260 -324 -874 -360 -1075 -3 -19
-8 -37 -10 -41 -4 -6 -37 -155 -50 -225 -33 -179 -52 -281 -60 -340 -12 -80
-14 -91 -21 -150 -3 -33 -8 -69 -10 -79 -2 -11 -6 -56 -10 -100 -3 -45 -7 -92
-10 -106 -25 -158 -25 -963 1 -1165 2 -16 7 -64 10 -105 12 -145 78 -587 99
-658 3 -9 7 -33 10 -53 3 -19 12 -62 21 -95 8 -32 18 -72 21 -88 19 -106 133
-497 197 -676 57 -158 129 -344 137 -355 4 -5 11 -21 15 -35 4 -14 20 -52 35
-85 15 -33 37 -82 50 -110 75 -167 202 -408 335 -637 99 -169 351 -543 452
-668 160 -200 212 -264 297 -360 158 -181 515 -533 664 -656 13 -10 38 -32 55
-47 123 -110 404 -321 606 -456 136 -91 336 -215 441 -273 25 -14 63 -35 85
-48 89 -50 496 -250 510 -250 3 0 28 -11 57 -24 135 -63 455 -183 629 -236 57
-17 131 -40 164 -50 55 -17 312 -85 360 -95 262 -54 386 -78 469 -90 123 -18
147 -22 211 -30 28 -3 64 -8 80 -10 17 -2 59 -7 95 -10 36 -3 83 -8 105 -10
201 -20 767 -27 995 -12 165 10 239 16 285 22 22 2 63 7 90 10 43 5 184 24
295 40 119 18 305 54 440 86 69 16 136 32 148 35 13 2 49 12 80 20 32 9 80 22
107 29 432 115 1056 373 1455 602 19 11 62 35 95 53 217 120 629 401 855 584
352 284 705 631 979 961 46 55 91 109 101 121 9 12 44 57 76 100 33 43 64 84
69 90 6 6 16 20 23 30 7 11 29 42 48 69 119 166 324 486 324 506 0 5 5 9 10 9
6 0 10 4 10 8 0 5 28 58 61 118 140 248 359 715 409 874 5 14 29 81 55 150 89
242 211 672 251 890 3 14 11 59 19 100 21 106 25 131 30 165 3 17 7 39 9 50 2
12 8 48 12 80 4 33 9 62 9 65 1 3 5 37 9 75 5 39 10 77 11 86 2 9 6 52 10 95
4 43 9 93 11 109 12 101 19 309 19 580 -1 436 -15 627 -80 1075 -6 40 -54 298
-71 380 -42 204 -147 573 -225 790 -22 63 -45 126 -49 140 -9 28 -94 239 -115
285 -7 17 -34 77 -60 135 -54 121 -167 347 -235 470 -26 47 -60 108 -75 135
-15 28 -47 81 -71 118 -24 37 -44 70 -44 72 0 8 -226 342 -293 432 -130 177
-298 382 -462 563 -70 78 -379 385 -450 449 -33 29 -73 64 -88 78 -263 239
-743 583 -1096 786 -248 142 -506 269 -751 371 -63 27 -124 52 -135 57 -117
52 -443 162 -661 223 -139 39 -190 52 -274 71 -8 2 -58 13 -110 25 -52 12
-105 24 -117 25 -11 2 -29 5 -40 9 -10 3 -38 8 -63 11 -25 3 -52 8 -60 10 -14
4 -42 9 -105 19 -16 2 -49 7 -73 11 -23 4 -52 8 -65 9 -12 2 -44 6 -72 10
-132 17 -185 23 -290 31 -44 4 -107 9 -140 12 -68 5 -731 13 -737 8z"/>
</g>
</svg>
