<?xml version="1.0" standalone="no"?>
<!DOCTYPE svg PUBLIC "-//W3C//DTD SVG 20010904//EN"
 "http://www.w3.org/TR/2001/REC-SVG-20010904/DTD/svg10.dtd">
<svg version="1.0" xmlns="http://www.w3.org/2000/svg"
 width="1083.000000pt" height="1083.000000pt" viewBox="0 0 1083.000000 1083.000000"
 preserveAspectRatio="xMidYMid meet">
<metadata>
Created by potrace 1.14, written by Peter Selinger 2001-2017
</metadata>
<g transform="translate(0.000000,1083.000000) scale(0.100000,-0.100000)"
fill="#000000" stroke="none">
<path d="M5045 10809 c-191 -16 -228 -19 -254 -23 -14 -3 -51 -7 -82 -11 -31
-3 -67 -8 -80 -10 -13 -3 -44 -8 -69 -11 -25 -3 -52 -7 -60 -9 -8 -3 -33 -7
-55 -10 -22 -4 -47 -8 -55 -10 -8 -2 -29 -7 -47 -10 -30 -5 -263 -58 -328 -75
-679 -176 -1403 -542 -1975 -999 -96 -76 -106 -85 -215 -181 -258 -226 -597
-598 -783 -859 -377 -531 -625 -1030 -808 -1630 -24 -79 -46 -153 -48 -165 -8
-37 -14 -59 -34 -141 -35 -134 -75 -354 -98 -530 -3 -22 -7 -51 -10 -65 -2
-14 -6 -56 -10 -95 -3 -38 -7 -83 -9 -100 -9 -73 -18 -312 -18 -445 0 -142 11
-441 17 -477 2 -10 7 -54 11 -97 4 -43 8 -86 10 -95 1 -9 6 -43 10 -76 4 -32
9 -68 11 -80 2 -11 6 -33 8 -50 11 -79 71 -378 88 -440 6 -22 12 -45 13 -50
24 -116 129 -435 210 -641 82 -204 242 -543 304 -644 6 -8 45 -73 87 -145 273
-461 631 -892 1054 -1270 59 -52 167 -143 209 -175 18 -14 38 -30 44 -36 31
-27 248 -184 256 -184 5 0 11 -4 13 -9 4 -11 329 -221 343 -221 1 0 42 -23 91
-51 78 -45 345 -178 444 -222 265 -116 657 -251 840 -290 14 -3 66 -15 115
-27 50 -12 99 -24 110 -26 11 -2 31 -6 45 -9 14 -3 63 -12 110 -20 47 -8 96
-17 110 -20 14 -3 52 -8 85 -11 33 -4 62 -8 66 -10 3 -1 39 -6 80 -9 40 -4 85
-9 99 -11 183 -31 903 -24 1145 11 21 3 60 8 85 11 50 6 259 40 365 60 66 12
205 45 295 69 52 14 106 28 120 31 98 20 530 177 688 250 41 19 76 34 78 34 7
0 252 123 331 166 162 88 380 226 577 364 58 40 284 216 296 230 3 3 21 18 40
34 122 99 395 364 522 506 426 479 764 1020 991 1586 55 138 135 357 141 389
2 5 14 48 29 95 22 71 44 152 63 230 2 8 10 44 19 80 30 122 67 320 85 450 28
199 36 278 47 455 13 205 6 729 -11 820 -2 11 -7 56 -11 100 -4 44 -8 82 -10
85 -2 3 -6 32 -9 65 -3 33 -8 72 -11 88 -7 40 -24 137 -30 177 -12 76 -86 382
-120 500 -49 167 -110 349 -150 445 -7 17 -32 77 -55 135 -80 194 -240 514
-343 682 -12 20 -35 58 -51 85 -46 76 -192 288 -274 398 -358 477 -816 910
-1315 1244 -299 200 -632 377 -952 507 -60 25 -119 49 -130 54 -11 6 -114 41
-230 79 -243 80 -574 164 -732 186 -21 3 -47 8 -59 10 -12 3 -39 7 -60 10 -21
4 -50 8 -63 10 -24 4 -90 13 -146 20 -16 2 -64 7 -105 10 -41 4 -91 9 -110 11
-66 8 -695 11 -785 3z"/>
</g>
</svg>
